<svg width="375" height="324" viewBox="0 0 375 324" fill="none" xmlns="http://www.w3.org/2000/svg">
<path d="M113.466 124.232C101.439 76.172 56.504 43.234 7.03615 46.2108C1.56123 46.5398 -3.25876 42.6374 -4.09112 37.2192L-7.4948 15.1079C-8.44008 8.97377 -3.94594 3.36209 2.2452 2.89123C18.0247 1.69149 33.7493 3.0428 49.1288 6.92583C67.5538 11.5796 84.6948 19.6585 100.077 30.9335C115.46 42.2084 128.32 56.1248 138.299 72.2922C146.629 85.7892 152.639 100.373 156.24 115.779C157.653 121.823 153.646 127.793 147.509 128.738L125.387 132.14C119.967 132.976 114.796 129.551 113.466 124.232Z" fill="#F3BD02"/>
<path d="M248.66 88.796C297.677 81.4847 334.827 39.968 336.653 -9.53731C336.856 -15.0168 341.208 -19.4319 346.683 -19.7383L369.028 -20.9832C375.225 -21.3283 380.381 -16.3132 380.249 -10.1114C379.913 5.70452 377.048 21.2173 371.69 36.143C365.273 54.023 355.568 70.2969 342.85 84.5099C330.132 98.7229 315.03 110.169 297.967 118.531C283.723 125.511 268.618 130.081 252.932 132.17C246.78 132.99 241.221 128.426 240.876 122.231L239.63 99.8936C239.33 94.4206 243.237 89.6055 248.66 88.796Z" fill="#F29F05"/>
<path d="M280.699 185.456C305.959 228.073 358.431 246.799 404.985 229.809C410.136 227.929 415.87 230.289 418.217 235.245L427.797 255.462C430.452 261.07 427.752 267.732 421.955 269.953C407.175 275.612 391.721 278.813 375.874 279.485C356.888 280.29 338.154 277.449 320.189 271.038C302.223 264.628 285.925 254.966 271.745 242.325C259.907 231.771 249.976 219.516 242.125 205.779C239.047 200.392 241.179 193.525 246.788 190.866L267.012 181.284C271.97 178.936 277.906 180.74 280.699 185.456Z" fill="#FAF8F5"/>
<path d="M-21.7744 208.658C21.7103 232.393 76.386 221.689 107.729 183.303C111.198 179.056 117.332 178.156 121.882 181.218L140.445 193.705C145.592 197.17 146.674 204.277 142.824 209.147C133.008 221.561 121.358 232.207 108.077 240.879C92.1659 251.269 74.6094 258.396 55.8901 262.062C37.1708 265.727 18.2238 265.747 -0.423748 262.122C-15.9915 259.095 -30.7892 253.632 -44.5556 245.833C-49.9534 242.774 -51.6278 235.781 -48.1645 230.631L-35.6719 212.062C-32.6087 207.511 -26.5846 206.03 -21.7744 208.658Z" fill="#FAF8F5"/>
</svg>
